<svg width="33" height="32" viewBox="0 0 33 32" fill="none" xmlns="http://www.w3.org/2000/svg">
<path fill-rule="evenodd" clip-rule="evenodd" d="M16.5 0.923073C8.17325 0.923073 1.42308 7.67324 1.42308 16C1.42308 24.3268 8.17324 31.0769 16.5 31.0769C24.8268 31.0769 31.5769 24.3268 31.5769 16C31.5769 7.67324 24.8268 0.923074 16.5 0.923073ZM16.5 -1.39876e-06C7.66345 -2.17128e-06 0.500002 7.16344 0.500001 16C0.500001 24.8366 7.66344 32 16.5 32C25.3366 32 32.5 24.8366 32.5 16C32.5 7.16344 25.3366 -6.26248e-07 16.5 -1.39876e-06Z" fill="white"/>
<path d="M14.3927 22.7879C14.573 22.9681 14.8652 22.9681 15.0454 22.7879L21.8333 16L15.0454 9.2121C14.8652 9.03186 14.573 9.03186 14.3927 9.2121C14.2125 9.39234 14.2125 9.68457 14.3927 9.86482L20.5279 16L14.3927 22.1352C14.2125 22.3154 14.2125 22.6077 14.3927 22.7879Z" fill="white"/>
</svg>
