<svg width="33" height="32" viewBox="0 0 33 32" fill="none" xmlns="http://www.w3.org/2000/svg">
<path fill-rule="evenodd" clip-rule="evenodd" d="M16.5 31.0769C24.8268 31.0769 31.5769 24.3268 31.5769 16C31.5769 7.67324 24.8268 0.923077 16.5 0.923077C8.17324 0.923077 1.42308 7.67324 1.42308 16C1.42308 24.3268 8.17324 31.0769 16.5 31.0769ZM16.5 32C25.3366 32 32.5 24.8366 32.5 16C32.5 7.16344 25.3366 0 16.5 0C7.66344 0 0.5 7.16344 0.5 16C0.5 24.8366 7.66344 32 16.5 32Z" fill="white"/>
<path d="M18.6073 9.2121C18.427 9.03186 18.1348 9.03186 17.9546 9.21211L11.1667 16L17.9546 22.7879C18.1348 22.9681 18.427 22.9681 18.6073 22.7879C18.7875 22.6077 18.7875 22.3154 18.6073 22.1352L12.4721 16L18.6073 9.86482C18.7875 9.68458 18.7875 9.39235 18.6073 9.2121Z" fill="white"/>
</svg>
